<?xml version="1.0" encoding="UTF-8"?>
<svg width="308px" height="394px" viewBox="0 0 308 394" version="1.1" xmlns="http://www.w3.org/2000/svg" xmlns:xlink="http://www.w3.org/1999/xlink">
    <!-- Generator: Sketch 48.2 (47327) - http://www.bohemiancoding.com/sketch -->
    <title>button-icon</title>
    <desc>Created with Sketch.</desc>
    <defs></defs>
    <g id="Login---Scelta-IdP" stroke="none" stroke-width="1" fill="none" fill-rule="evenodd" transform="translate(-981.000000, -446.000000)">
        <g id="button-icon" transform="translate(981.000000, 446.000000)" fill="#F5F6F7" fill-rule="nonzero">
            <path d="M155.105769,236 C121.379808,236 93.5973558,224.716035 71.7584135,201.872886 C49.9194712,179.167347 39,150.957434 39,117.380758 C39,83.6664723 49.9194712,55.7317784 71.6201923,33.4390671 C93.3209135,11.1463557 120.965144,0 154.829327,0 C188.555288,0 216.061298,11.283965 237.209135,34.264723 C258.356971,57.1078717 269,85.1801749 269,118.894461 C269,152.333528 258.356971,180.268222 237.209135,202.560933 C216.061298,224.716035 188.831731,236 155.105769,236" id="XMLID_2_"></path>
            <path d="M0,393.344907 C0,356.481481 14.6225962,325.9375 43.4975962,301.5625 C72.5576923,277.1875 109.576923,265 155.295673,265 C200.459135,265 237.293269,277.337963 265.427885,302.465278 C293.747596,327.592593 308,358.287037 308,395" id="XMLID_1_"></path>
        </g>
    </g>
</svg>