<?xml version="1.0" encoding="UTF-8"?>
<svg width="81px" height="32px" viewBox="0 0 81 32" version="1.1" xmlns="http://www.w3.org/2000/svg" xmlns:xlink="http://www.w3.org/1999/xlink">
    <!-- Generator: Sketch 48.2 (47327) - http://www.bohemiancoding.com/sketch -->
    <title>spid-level2-logo-bb</title>
    <desc>Created with Sketch.</desc>
    <defs></defs>
    <g id="Login---Livello-2---Seleziona-modalità" stroke="none" stroke-width="1" fill="none" fill-rule="evenodd" transform="translate(-20.000000, -100.000000)">
        <g id="Loghi" transform="translate(20.000000, 100.000000)" fill="#0066CC" fill-rule="nonzero">
            <g id="spidlogo/level2">
                <path d="M13.4825095,11.473825 C10.5875755,11.0904514 8.56248086,10.8987646 7.40722551,10.8987646 C6.25197015,10.8987646 5.50445198,11.0082999 5.164671,11.2136786 C4.82489001,11.4190574 4.66179514,11.7613553 4.66179514,12.2131885 C4.66179514,12.6650217 4.89284621,12.9936276 5.34135711,13.1716225 C5.78986801,13.3496174 6.9587146,13.6097638 8.84789689,13.9520617 C10.7234879,14.2943596 12.0690206,14.8557281 12.8573125,15.6224754 C13.6456044,16.4029145 14.0533416,17.6625707 14.0533416,19.401444 C14.0533416,23.2077964 11.7020572,25.1109727 7.01307956,25.1109727 C5.4772695,25.1109727 3.60167846,24.9055939 1.4134889,24.4811446 L0.299007268,24.2757658 L0.434919663,20.3188023 C3.32985367,20.7021759 5.34135711,20.8801708 6.48302122,20.8801708 C7.6110941,20.8801708 8.38579475,20.7706355 8.79353193,20.5515649 C9.20126912,20.3324942 9.40513771,19.9901964 9.40513771,19.5520551 C9.40513771,19.1139138 9.18767788,18.7716159 8.75275821,18.5662372 C8.31783855,18.3608584 7.20335691,18.100712 5.39572207,17.785798 C3.58808722,17.4845758 2.24255451,16.9642831 1.34553271,16.2386116 C0.448510902,15.4992481 0,14.1985162 0,12.3364157 C0,10.4606233 0.625197015,9.05035602 1.88918229,8.10561386 C3.15316756,7.14717979 4.77052505,6.68165467 6.75484601,6.68165467 C8.1275612,6.68165467 10.0167435,6.90072532 12.3952104,7.35255852 L13.5504657,7.55793725 L13.4825095,11.473825 Z" id="XMLID_10_"></path>
                <path d="M17.4375602,32.1075414 L17.4375602,7.05133638 L22.0993554,7.05133638 L22.0993554,8.00977046 C23.6215742,7.09241213 24.9535157,6.62688701 26.0951798,6.62688701 C28.4464642,6.62688701 30.1861428,7.33886661 31.3142157,8.7628258 C32.4286974,10.186785 32.9995294,12.5965621 32.9995294,16.0195409 C32.9995294,19.4288278 32.3743324,21.7975292 31.1375296,23.125645 C29.9007268,24.4537607 27.8620409,25.1246646 25.0486543,25.1246646 C24.2739537,25.1246646 23.4448881,25.056205 22.5614575,24.9192859 L22.1401291,24.8508263 L22.1401291,32.1212333 L17.4375602,32.1212333 L17.4375602,32.1075414 Z M25.1845667,10.8713808 C24.3147274,10.8713808 23.4448881,11.0493757 22.5614575,11.4053655 L22.1401291,11.5833604 L22.1401291,20.8117113 C23.1866545,20.9486304 24.0429026,21.01709 24.6952821,21.01709 C26.054406,21.01709 26.9786103,20.6200245 27.4814862,19.8122015 C27.9843621,19.0180704 28.2290044,17.6488788 28.2290044,15.7183188 C28.2290044,12.4870268 27.2096614,10.8713808 25.1845667,10.8713808 Z" id="XMLID_73_"></path>
                <path d="M65.1156283,0 L65.1156283,24.7002152 L60.4538331,24.7002152 L60.4538331,23.9608518 C58.8228844,24.741291 57.4093955,25.1246646 56.2133664,25.1246646 C53.6718046,25.1246646 51.8913523,24.3853012 50.8856005,22.9065743 C49.8798488,21.4278475 49.376973,19.072838 49.376973,15.8689298 C49.376973,12.6513297 49.9749875,10.3237041 51.1846078,8.84497729 C52.3806369,7.37994235 54.201863,6.64057892 56.6346948,6.64057892 C57.382213,6.64057892 58.4151472,6.76380616 59.7470887,6.99656872 L60.4130594,7.13348788 L60.4130594,0 L65.1156283,0 Z M59.9237748,20.4694134 L60.4130594,20.3598781 L60.4130594,11.0767595 C59.1354829,10.8439969 57.9802275,10.7207697 56.9744758,10.7207697 C55.0852935,10.7207697 54.1339068,12.4185672 54.1339068,15.8004703 C54.1339068,17.6351869 54.3377754,18.9359189 54.7591038,19.716358 C55.1804322,20.4967972 55.8735854,20.8801708 56.8385634,20.8801708 C57.8307239,20.8938628 58.8500669,20.7432517 59.9237748,20.4694134 Z" id="XMLID_70_"></path>
                <path d="M41.1814556,17.306581 C39.7407842,17.306581 38.5447551,16.813672 37.6205508,15.8278541 C36.6827553,14.8420362 36.2206532,13.6234557 36.2206532,12.1721127 C36.2206532,10.7070778 36.6827553,9.50218922 37.6069596,8.54375515 C38.5311639,7.58532108 39.7271929,7.09241213 41.1678643,7.09241213 C42.6085357,7.09241213 43.7909735,7.58532108 44.6879953,8.57113898 C45.5986084,9.55695689 46.0471193,10.7755373 46.0471193,12.2268804 C46.0471193,13.6782234 45.5986084,14.8831119 44.6879953,15.8552379 C43.7909735,16.8273639 42.622127,17.306581 41.1814556,17.306581" id="XMLID_5_"></path>
                <path d="M36.2070619,24.4674527 C36.2070619,23.0024177 36.6691641,21.7975292 37.5933683,20.8390951 C38.5175726,19.880661 39.7136017,19.3877521 41.1542731,19.3877521 C42.5949445,19.3877521 43.7773823,19.880661 44.6744041,20.8664789 C45.5850172,21.8522968 46.0335281,23.0708773 46.0335281,24.5222203" id="XMLID_4_"></path>
                <path d="M75.3770141,18.5662372 C72.2918027,18.5662372 69.7774234,16.0332328 69.7774234,12.9251681 C69.7774234,9.81710328 72.2918027,7.28409894 75.3770141,7.28409894 C78.4622254,7.28409894 80.9766047,9.81710328 80.9766047,12.9251681 C80.9766047,16.0332328 78.4622254,18.5662372 75.3770141,18.5662372 M75.3770141,8.50267941 C72.9577734,8.50267941 70.9870437,10.4880071 70.9870437,12.9251681 C70.9870437,15.362329 72.9577734,17.3476567 75.3770141,17.3476567 C77.7962547,17.3476567 79.7669844,15.362329 79.7669844,12.9251681 C79.7669844,10.4880071 77.7962547,8.50267941 75.3770141,8.50267941" id="XMLID_21_"></path>
                <path d="M76.9943715,15.4034047 L73.7324741,15.4034047 L73.7324741,14.5271221 L74.806182,13.4591527 C75.1867367,13.0757791 75.4449702,12.774557 75.5944739,12.5691783 C75.7439775,12.3637995 75.825525,12.1447289 75.825525,11.9119663 C75.825525,11.6792038 75.7575688,11.5149008 75.6352476,11.4190574 C75.5129264,11.323214 75.3362403,11.2821382 75.1051893,11.2821382 C74.7654083,11.2821382 74.3984448,11.309522 73.9907076,11.3779816 L73.8140215,11.4053655 L73.7596566,10.6112344 C74.2625324,10.4606233 74.7654083,10.3921637 75.3090579,10.3921637 C76.3691745,10.3921637 76.9128241,10.8576888 76.9128241,11.802431 C76.9128241,12.1721127 76.8312767,12.4870268 76.6681818,12.7608651 C76.5050869,13.0347034 76.2060797,13.3633093 75.7847512,13.746683 L74.9149119,14.5271221 L76.9943715,14.5271221 L76.9943715,15.4034047 Z" id="XMLID_1_"></path>
            </g>
        </g>
    </g>
</svg>