<?xml version="1.0" encoding="UTF-8"?>
<svg width="480px" height="235px" viewBox="0 0 480 235" version="1.1" xmlns="http://www.w3.org/2000/svg" xmlns:xlink="http://www.w3.org/1999/xlink">
    <!-- Generator: Sketch 48.2 (47327) - http://www.bohemiancoding.com/sketch -->
    <title>spid-level1-logo-bb</title>
    <desc>Created with Sketch.</desc>
    <defs></defs>
    <g id="Page-1" stroke="none" stroke-width="1" fill="none" fill-rule="evenodd">
        <g id="spid-level1-logo-bb" fill="#0066CC" fill-rule="nonzero">
            <path d="M99.2,83.8 C77.9,81 63,79.6 54.5,79.6 C46,79.6 40.5,80.4 38,81.9 C35.5,83.4 34.3,85.9 34.3,89.2 C34.3,92.5 36,94.9 39.3,96.2 C42.6,97.5 51.2,99.4 65.1,101.9 C78.9,104.4 88.8,108.5 94.6,114.1 C100.4,119.8 103.4,129 103.4,141.7 C103.4,169.5 86.1,183.4 51.6,183.4 C40.3,183.4 26.5,181.9 10.4,178.8 L2.2,177.3 L3.2,148.4 C24.5,151.2 39.3,152.5 47.7,152.5 C56,152.5 61.7,151.7 64.7,150.1 C67.7,148.5 69.2,146 69.2,142.8 C69.2,139.6 67.6,137.1 64.4,135.6 C61.2,134.1 53,132.2 39.7,129.9 C26.4,127.7 16.5,123.9 9.9,118.6 C3.3,113.2 0,103.7 0,90.1 C0,76.4 4.6,66.1 13.9,59.2 C23.2,52.2 35.1,48.8 49.7,48.8 C59.8,48.8 73.7,50.4 91.2,53.7 L99.7,55.2 L99.2,83.8 Z" id="XMLID_10_"></path>
            <path d="M128.3,234.5 L128.3,51.5 L162.6,51.5 L162.6,58.5 C173.8,51.8 183.6,48.4 192,48.4 C209.3,48.4 222.1,53.6 230.4,64 C238.6,74.4 242.8,92 242.8,117 C242.8,141.9 238.2,159.2 229.1,168.9 C220,178.6 205,183.5 184.3,183.5 C178.6,183.5 172.5,183 166,182 L162.9,181.5 L162.9,234.6 L128.3,234.6 L128.3,234.5 Z M185.3,79.4 C178.9,79.4 172.5,80.7 166,83.3 L162.9,84.6 L162.9,152 C170.6,153 176.9,153.5 181.7,153.5 C191.7,153.5 198.5,150.6 202.2,144.7 C205.9,138.9 207.7,128.9 207.7,114.8 C207.7,91.2 200.2,79.4 185.3,79.4 Z" id="XMLID_21_"></path>
            <path d="M479.1,0 L479.1,180.4 L444.8,180.4 L444.8,175 C432.8,180.7 422.4,183.5 413.6,183.5 C394.9,183.5 381.8,178.1 374.4,167.3 C367,156.5 363.3,139.3 363.3,115.9 C363.3,92.4 367.7,75.4 376.6,64.6 C385.4,53.9 398.8,48.5 416.7,48.5 C422.2,48.5 429.8,49.4 439.6,51.1 L444.5,52.1 L444.5,0 L479.1,0 Z M440.9,149.5 L444.5,148.7 L444.5,80.9 C435.1,79.2 426.6,78.3 419.2,78.3 C405.3,78.3 398.3,90.7 398.3,115.4 C398.3,128.8 399.8,138.3 402.9,144 C406,149.7 411.1,152.5 418.2,152.5 C425.5,152.6 433,151.5 440.9,149.5 Z" id="XMLID_18_"></path>
            <path d="M303,126.4 C292.4,126.4 283.6,122.8 276.8,115.6 C269.9,108.4 266.5,99.5 266.5,88.9 C266.5,78.2 269.9,69.4 276.7,62.4 C283.5,55.4 292.3,51.8 302.9,51.8 C313.5,51.8 322.2,55.4 328.8,62.6 C335.5,69.8 338.8,78.7 338.8,89.3 C338.8,99.9 335.5,108.7 328.8,115.8 C322.2,122.9 313.6,126.4 303,126.4" id="XMLID_5_"></path>
            <path d="M266.4,178.7 C266.4,168 269.8,159.2 276.6,152.2 C283.4,145.2 292.2,141.6 302.8,141.6 C313.4,141.6 322.1,145.2 328.7,152.4 C335.4,159.6 338.7,168.5 338.7,179.1" id="XMLID_4_"></path>
        </g>
    </g>
</svg>