<?xml version="1.0" encoding="UTF-8"?>
<svg width="360px" height="394px" viewBox="0 0 360 394" version="1.1" xmlns="http://www.w3.org/2000/svg" xmlns:xlink="http://www.w3.org/1999/xlink">
    <!-- Generator: Sketch 48.2 (47327) - http://www.bohemiancoding.com/sketch -->
    <title>button-icon</title>
    <desc>Created with Sketch.</desc>
    <defs></defs>
    <g id="Login---Invio-dati" stroke="none" stroke-width="1" fill="none" fill-rule="evenodd" transform="translate(-933.000000, -446.000000)" opacity="0.45492054">
        <g id="button-icon" transform="translate(933.000000, 446.000000)">
            <path d="M181.105769,236 C147.379808,236 119.597356,224.716035 97.7584135,201.872886 C75.9194712,179.167347 65,150.957434 65,117.380758 C65,83.6664723 75.9194712,55.7317784 97.6201923,33.4390671 C119.320913,11.1463557 146.965144,0 180.829327,0 C214.555288,0 242.061298,11.283965 263.209135,34.264723 C284.356971,57.1078717 295,85.1801749 295,118.894461 C295,152.333528 284.356971,180.268222 263.209135,202.560933 C242.061298,224.716035 214.831731,236 181.105769,236" id="XMLID_2_" fill="#F5F6F7" fill-rule="nonzero"></path>
            <path d="M0,394.319444 C0,356.888889 17.0913462,325.875 50.8413462,301.125 C75.786153,282.948657 105.748378,271.446646 141.07079,266.618967 C153.845495,264.872989 167.306878,301.125 181.5,301.125 C195.240493,301.125 208.335797,264.848791 220.749436,266.554455 C256.026728,271.401642 285.91542,283.168877 310.240385,302.041667 C343.341346,327.555556 360,358.722222 360,396" id="XMLID_1_" fill="#F5F6F7" fill-rule="nonzero"></path>
        </g>
    </g>
</svg>