<?xml version="1.0" encoding="UTF-8"?>
<svg width="102px" height="40px" viewBox="0 0 102 40" version="1.1" xmlns="http://www.w3.org/2000/svg" xmlns:xlink="http://www.w3.org/1999/xlink">
    <!-- Generator: Sketch 48.2 (47327) - http://www.bohemiancoding.com/sketch -->
    <title>spidlogo/level3</title>
    <desc>Created with Sketch.</desc>
    <defs></defs>
    <g id="Symbols" stroke="none" stroke-width="1" fill="none" fill-rule="evenodd">
        <g id="spidlogo/level3" fill="#0066CC" fill-rule="nonzero">
            <path d="M16.9996815,14.3173197 C13.3605537,13.8560218 10.8148728,13.6168303 9.36263865,13.6168303 C7.91040456,13.6168303 6.97072367,13.7535112 6.54359599,14.0097878 C6.11646832,14.2660644 5.91144703,14.693192 5.91144703,15.2570006 C5.91144703,15.8208091 6.20189385,16.2308517 6.76570238,16.4529581 C7.32951092,16.6750645 8.79883012,16.9996815 11.17366,17.4268092 C13.5314048,17.8539368 15.2228304,18.5544262 16.2137666,19.5111922 C17.2047028,20.4850433 17.717256,22.0568732 17.717256,24.2266818 C17.717256,28.9763415 14.7615325,31.3511714 8.86717055,31.3511714 C6.93655346,31.3511714 4.57880868,31.0948948 1.82810645,30.5652565 L0.427127676,30.3089799 L0.597978746,25.3713839 C4.23710654,25.8497669 6.76570238,26.0718733 8.20085138,26.0718733 C9.61891526,26.0718733 10.5927664,25.9351925 11.1053196,25.6618308 C11.6178728,25.388469 11.8741494,24.9613414 11.8741494,24.4146179 C11.8741494,23.8508094 11.6007877,23.4407668 11.0540642,23.1844902 C10.5073408,22.9282136 9.10636205,22.6035966 6.83404281,22.2106391 C4.56172358,21.8347668 2.87029798,21.1855327 1.74268092,20.280022 C0.63214896,19.3745114 0.0683404281,17.7514262 0.0683404281,15.4107665 C0.0683404281,13.0701069 0.854255352,11.3103409 2.44317031,10.1314685 C4.03208526,8.93551098 6.065213,8.35461734 8.55963862,8.35461734 C10.2852344,8.35461734 12.6600643,8.62797905 15.649958,9.19178758 L17.1021921,9.44806419 L16.9996815,14.3173197 Z" id="XMLID_10_"></path>
            <path d="M21.9714476,40.064576 L21.9714476,8.79883012 L27.8316394,8.79883012 L27.8316394,9.99478761 C29.7451713,8.85008544 31.4195118,8.2691918 32.8546608,8.2691918 C35.8103843,8.2691918 37.997278,9.15761737 39.4153419,10.9344685 C40.8163207,12.7113196 41.5338952,15.7182985 41.5338952,19.9895752 C41.5338952,24.2437669 40.7479803,27.1994904 39.1932355,28.8567458 C37.6384908,30.5140012 35.0757247,31.3511714 31.5391076,31.3511714 C30.5652565,31.3511714 29.523065,31.2657459 28.412533,31.0948948 L27.8828947,31.0094693 L27.8828947,40.0816611 L21.9714476,40.0816611 L21.9714476,40.064576 Z M31.7099587,13.565575 C30.6165118,13.565575 29.523065,13.7876814 28.412533,14.2318942 L27.8828947,14.4540005 L27.8828947,25.9693627 C29.1984479,26.1402138 30.2748097,26.2256393 31.0948948,26.2256393 C32.8034055,26.2256393 33.9651928,25.7301712 34.5973417,24.7221499 C35.2294907,23.7312137 35.5370226,22.022703 35.5370226,19.6137029 C35.5370226,15.5816176 34.2556396,13.565575 31.7099587,13.565575 Z M81.9060031,0 L81.9060031,30.8215331 L76.0458114,30.8215331 L76.0458114,29.8989373 C73.9955986,30.8727884 72.2187474,31.3511714 70.715258,31.3511714 C67.520343,31.3511714 65.282194,30.4285756 64.017896,28.5833841 C62.7535981,26.7381925 62.1214492,23.7995541 62.1214492,19.8016391 C62.1214492,15.7866389 62.8731939,12.8821707 64.3937684,11.0369791 C65.8972578,9.20887269 68.1866622,8.28627691 71.2448963,8.28627691 C72.1845772,8.28627691 73.4830453,8.44004287 75.1573858,8.73048969 L75.9945561,8.90134076 L75.9945561,0 L81.9060031,0 Z M75.3794922,25.542235 L75.9945561,25.4055542 L75.9945561,13.8218516 C74.388556,13.5314048 72.9363219,13.3776388 71.672024,13.3776388 C69.2971941,13.3776388 68.1012366,15.4961921 68.1012366,19.7162135 C68.1012366,22.0056179 68.3575132,23.628703 68.8871516,24.6025541 C69.4167899,25.5764052 70.2881303,26.0547882 71.5011729,26.0547882 C72.7483857,26.0718733 74.0297688,25.8839372 75.3794922,25.542235 Z" id="Shape"></path>
            <path d="M51.8191296,21.5955753 C50.0081083,21.5955753 48.5046189,20.9805114 47.3428316,19.7503837 C46.1639592,18.520256 45.5830656,16.9996815 45.5830656,15.1886602 C45.5830656,13.3605537 46.1639592,11.8570643 47.3257465,10.6611068 C48.4875338,9.4651493 49.9910232,8.85008544 51.8020445,8.85008544 C53.6130659,8.85008544 55.0994702,9.4651493 56.2270872,10.695277 C57.3717894,11.9254047 57.9355979,13.4459792 57.9355979,15.2570006 C57.9355979,17.0680219 57.3717894,18.5715113 56.2270872,19.7845539 C55.0994702,20.9975965 53.630151,21.5955753 51.8191296,21.5955753" id="XMLID_5_"></path>
            <path d="M45.5659805,30.5310863 C45.5659805,28.7029798 46.1468741,27.1994904 47.3086614,26.0035329 C48.4704487,24.8075754 49.9739381,24.1925116 51.7849594,24.1925116 C53.5959808,24.1925116 55.0823851,24.8075754 56.2100021,26.0377031 C57.3547043,27.2678308 57.9185128,28.7884053 57.9185128,30.5994267" id="XMLID_4_"></path>
            <path d="M94.8052589,23.1674051 C90.9269396,23.1674051 87.7661948,20.0066603 87.7661948,16.128341 C87.7661948,12.2500217 90.9269396,9.08927694 94.8052589,9.08927694 C98.6835782,9.08927694 101.844323,12.2500217 101.844323,16.128341 C101.844323,20.0066603 98.6835782,23.1674051 94.8052589,23.1674051 M94.8052589,10.6098515 C91.7641099,10.6098515 89.2867694,13.087192 89.2867694,16.128341 C89.2867694,19.1694901 91.7641099,21.6468306 94.8052589,21.6468306 C97.846408,21.6468306 100.323748,19.1694901 100.323748,16.128341 C100.323748,13.087192 97.846408,10.6098515 94.8052589,10.6098515" id="Shape"></path>
            <path d="M92.7208759,13.2751282 C93.3017695,13.0530218 93.9680887,12.933426 94.6856632,12.933426 C95.4032377,12.933426 95.932876,13.0701069 96.2745781,13.3434686 C96.5991952,13.6168303 96.7700462,14.043958 96.7700462,14.6419367 C96.7700462,15.2399155 96.5308547,15.7012134 96.0353866,16.0087453 C96.3429186,16.1625113 96.5650249,16.3333623 96.6846207,16.5212985 C96.8213016,16.6921496 96.8725569,16.9655113 96.8725569,17.3584687 C96.8725569,18.0247879 96.7017058,18.520256 96.3600037,18.8448731 C96.0183015,19.1694901 95.4715781,19.3232561 94.7198334,19.3232561 C94.17311,19.3232561 93.5751312,19.2378305 92.9771525,19.0840646 L92.6696205,19.0157241 L92.737961,18.041873 C93.4555355,18.1614688 94.0535142,18.2127241 94.5318972,18.2127241 C95.1811313,18.2127241 95.5228334,17.9393624 95.5228334,17.392639 C95.5228334,17.1705326 95.4374079,16.9825964 95.2665568,16.8459155 C95.0957057,16.7092347 94.8735994,16.6408942 94.6002376,16.6408942 L93.3359397,16.6408942 L93.3359397,15.5816176 L94.6002376,15.5816176 C94.8052589,15.5816176 94.9931951,15.4961921 95.1640462,15.325341 C95.3348972,15.1544899 95.4032377,14.9665538 95.4032377,14.7444474 C95.4032377,14.3002346 95.0957057,14.0781282 94.4635568,14.0781282 C94.019344,14.0781282 93.5580461,14.1293835 93.062578,14.2148091 L92.8063014,14.2489793 L92.7208759,13.2751282 Z" id="XMLID_1_"></path>
        </g>
    </g>
</svg>